<?xml version="1.0" encoding="iso-8859-1"?>
<!-- Generator: Adobe Illustrator 19.0.0, SVG Export Plug-In . SVG Version: 6.00 Build 0)  -->
<svg version="1.1" id="Capa_1" xmlns="http://www.w3.org/2000/svg" xmlns:xlink="http://www.w3.org/1999/xlink" x="0px" y="0px"
	 viewBox="0 0 512 512" style="enable-background:new 0 0 512 512;" xml:space="preserve">
<g>
	<g>
		<path d="M402.002,319.999c-5.52,0-10,4.48-10,10c0,5.52,4.48,10,10,10c5.52,0,10-4.48,10-10
			C412.002,324.479,407.522,319.999,402.002,319.999z"/>
	</g>
</g>
<g>
	<g>
		<path d="M482.001,280h-15.802c-3.551-17.755-24.598-122.983-27.962-139.799c-4.659-23.293-25.277-40.199-49.025-40.199h-38.227
			c0.669-3.28,1.017-6.629,1.017-10c0-23.687-16.561-43.565-38.709-48.698c3.738-12.313,15.192-21.301,28.709-21.301h20
			c5.523,0,10-4.478,10-10s-4.477-10-10-10h-20c-24.445,0-44.834,17.638-49.146,40.853c-23.215,4.311-40.852,24.701-40.852,49.146
			c0,3.37,0.348,6.72,1.017,10h-38.227c-23.749,0-44.366,16.906-49.025,40.198c-2.661,13.302-10.503,52.513-15.039,75.191
			L45.815,152.505c-13.875-8.598-32.368-4.617-41.249,9.605c-8.784,14.053-4.515,32.546,9.54,41.331
			c0.047,0.029,0.095,0.059,0.143,0.087l123.932,74.602l-0.374,1.87h-15.802c-16.542,0-30,13.458-30,30
			c0,14.034,9.688,25.844,22.727,29.104c14.899,36.67,50.503,60.895,90.522,60.895h66.749v51.999h-10
			c-27.57,0-49.999,22.43-49.999,49.999c0,5.522,4.477,10,10,10h159.998c5.523,0,10-4.478,10-10c0-13.35-5.203-25.904-14.649-35.352
			c-9.447-9.446-22.001-14.648-35.351-14.648h-10v-51.999h66.749c40.019,0,75.623-24.227,90.522-60.895
			C502.312,335.843,512,324.033,512,310C512,293.458,498.543,280,482.001,280z M302.003,60.003c16.542,0,30,13.458,30,30
			c0,5.269-1.387,10.455-4.006,14.992c-5.356,9.257-15.316,15.008-25.994,15.008s-20.638-5.751-25.989-14.999
			c-2.624-4.546-4.011-9.732-4.011-15.001C272.003,73.46,285.461,60.003,302.003,60.003z M185.38,144.123
			c2.796-13.976,15.166-24.121,29.414-24.121h47.229c9.377,12.457,24.201,20,39.98,20c15.777,0,30.598-7.54,39.979-20h47.23
			c14.249,0,26.619,10.145,29.415,24.122l3.426,17.131c-17.259,4.434-30.051,20.125-30.051,38.747c0,11.028-8.972,20-20,20
			c-11.028,0-20-8.972-20-20c0-22.056-17.944-40-40-40s-40,17.944-40,40v10c0,16.542-13.458,30-30,30s-30-13.458-30-30v-10
			c0-18.622-12.792-34.313-30.051-38.747L185.38,144.123z M178.018,180.929c8.098,2.559,13.986,10.139,13.986,19.073v10
			c0,27.57,22.43,49.999,49.999,49.999s49.999-22.43,49.999-49.999v-10c0-11.028,8.972-20,20-20c11.028,0,20,8.972,20,20
			c0,22.056,17.944,40,40,40c22.056,0,40-17.944,40-40c0-8.933,5.888-16.513,13.986-19.073l19.816,99.072H158.203L178.018,180.929z
			 M24.647,186.444c-4.633-2.941-6.036-9.07-3.119-13.737c2.948-4.721,9.114-6.098,13.783-3.183
			c0.051,0.032,0.102,0.063,0.153,0.094l111.1,66.593l-4.217,21.084L24.647,186.444z M342.003,471.998
			c8.007,0,15.539,3.122,21.208,8.791c3.22,3.22,5.619,7.041,7.09,11.209H233.718c4.127-11.641,15.249-20,28.287-20
			C286.966,471.998,318.557,471.998,342.003,471.998z M292.003,451.998v-51.999h20v51.999H292.003z M482.001,319.999h-40
			c-5.523,0-10,4.478-10,10c0,5.522,4.477,9.9,10,9.9h24.721c-13.513,24.387-39.319,40.1-67.97,40.1H205.254
			c-28.652,0-54.456-15.614-67.97-40h224.718c5.523,0,10-4.478,10-10c0-5.522-4.477-10-10-10H122.005c-5.514,0-10-4.486-10-10
			c0-5.514,4.486-10,10-10c11.309,0,335.069,0,359.996,0c5.514,0,10,4.486,10,10C492.001,315.514,487.515,319.999,482.001,319.999z"
			/>
	</g>
</g>
<g>
</g>
<g>
</g>
<g>
</g>
<g>
</g>
<g>
</g>
<g>
</g>
<g>
</g>
<g>
</g>
<g>
</g>
<g>
</g>
<g>
</g>
<g>
</g>
<g>
</g>
<g>
</g>
<g>
</g>
</svg>
